<?xml version="1.0" standalone="no"?>
<!DOCTYPE svg PUBLIC "-//W3C//DTD SVG 20010904//EN"
 "http://www.w3.org/TR/2001/REC-SVG-20010904/DTD/svg10.dtd">
<svg version="1.0" xmlns="http://www.w3.org/2000/svg"
 width="225.000000pt" height="225.000000pt" viewBox="0 0 225.000000 225.000000"
 preserveAspectRatio="xMidYMid meet">
<metadata>
Created by potrace 1.15, written by Peter Selinger 2001-2017
</metadata>
<g transform="translate(0.000000,225.000000) scale(0.100000,-0.100000)"
fill="#000000" stroke="none">
<path d="M1280 1526 c0 -101 -2 -115 -17 -119 -11 -3 -7 -5 10 -6 l27 -1 0
115 0 115 74 0 c40 0 88 -3 105 -6 l31 -6 0 -109 0 -108 113 -3 112 -3 3 -102
3 -103 -116 0 -115 0 1 -27 c1 -17 3 -21 6 -10 4 15 18 17 119 17 l114 0 0
120 0 119 -112 3 -113 3 -3 113 -3 112 -119 0 -120 0 0 -114z"/>
<path d="M828 1279 c-48 -14 -114 -71 -140 -122 -21 -43 -29 -121 -15 -169 7
-25 12 -28 50 -28 35 0 46 5 69 32 26 32 27 32 46 15 11 -10 26 -32 32 -48 7
-16 15 -29 19 -29 3 0 19 45 35 100 16 55 33 103 39 107 20 12 35 -28 62 -168
l28 -140 29 91 c26 81 32 91 51 88 13 -2 30 -19 43 -41 18 -33 23 -36 34 -22
10 12 35 15 116 15 103 0 105 0 114 26 33 85 -11 206 -93 261 -79 53 -188 54
-259 3 -26 -19 -27 -19 -72 6 -52 29 -132 39 -188 23z"/>
<path d="M940 982 c-28 -99 -48 -115 -78 -62 -36 65 -36 65 -66 35 -22 -21
-34 -26 -62 -23 -19 2 -34 0 -34 -5 0 -14 342 -357 355 -357 10 0 365 351 365
361 0 12 -175 -4 -196 -18 -31 -20 -49 -12 -72 33 l-19 38 -32 -102 c-20 -66
-37 -102 -46 -102 -20 0 -22 5 -51 146 -15 71 -29 132 -33 136 -3 4 -17 -32
-31 -80z"/>
</g>
</svg>
